#!OML:ASF G:\ViconDB\ViconDB\414\test\team2\shane.ASF
:FULLY-SPECIFIED
:DEGREES
132
root 3.98072 12.6425 -15.6847 136.782 69.3705 13.3324
lowerback 24.0592 0.755085 -6.4263
upperback 7.82189 -0.362316 -3.20971
thorax -4.71453 -0.0574701 0.272767
lowerneck -20.0538 -10.3681 -18.8437
upperneck 3.19661 -8.21436 -1.64629
head 4.7251 -4.1322 1.46495
rclavicle 2.62396e-014 2.70347e-014
rhumerus 24.6546 -3.96508 -22.7907
rradius 87.1953
rwrist 52.2974
rhand -64.8074 -29.3037
rfingers 7.12502
rthumb -36.7155 -55.4412
lclavicle 1.28142e-013 1.88348e-014
lhumerus 66.7869 7.96816 30.147
lradius 44.9176
lwrist -37.49
lhand -71.0365 -96.0185
lfingers 7.12502
lthumb -42.58 -480.411
rfemur -35.1925 -28.0705 22.2183
rtibia 72.2748
rfoot -9.94355 15.1592
rtoes -14.8525
lfemur -37.8756 11.9162 16.5537
ltibia 63.4716
lfoot -14.5451 -17.0942
ltoes -6.8672
133
root 4.00421 12.602 -15.4249 142.761 68.4205 18.703
lowerback 23.8126 0.0175467 -5.99937
upperback 7.72704 -1.1225 -3.04177
thorax -4.66606 -0.398852 0.417882
lowerneck -19.9264 -10.1099 -19.0487
upperneck 2.92316 -7.8493 -1.71381
head 4.59601 -3.93464 1.52619
rclavicle -1.00983e-013 -5.56597e-014
rhumerus 23.6937 -2.46122 -20.1427
rradius 88.6538
rwrist 53.4525
rhand -64.5563 -29.588
rfingers 7.12502
rthumb -36.4777 -55.7857
lclavicle -1.00983e-013 -5.56597e-014
lhumerus 60.2455 8.29795 29.2109
lradius 51.2931
lwrist -39.997
lhand -68.3689 -126.286
lfingers 7.12502
lthumb -40.0763 -511.489
rfemur -39.1309 -29.4454 22.0496
rtibia 72.7808
rfoot -10.5489 13.6223
rtoes -13.5988
lfemur -39.1465 12.0802 15.91
ltibia 64.4942
lfoot -13.5137 -18.0842
ltoes -7.58847
134
root 4.03587 12.5282 -15.1613 145.703 68.368 21.6736
lowerback 23.9869 -0.110963 -5.89335
upperback 7.88661 -1.23485 -2.99051
thorax -4.57354 -0.447041 0.4434
lowerneck -20.4169 -10.3225 -19.0118
upperneck 3.72439 -7.92806 -1.85461
head 4.93133 -4.02933 1.42841
rclavicle 1.74931e-014 4.29375e-014
rhumerus 23.0101 -1.18793 -17.7823
rradius 89.6787
rwrist 54.0516
rhand -64.8599 -24.685
rfingers 7.12502
rthumb -36.7651 -50.8098
lclavicle 1.74931e-014 4.29375e-014
lhumerus 60.0139 8.81635 29.1338
lradius 51.1459
lwrist -40.1228
lhand -68.0486 -126.533
lfingers 7.12502
lthumb -39.7749 -511.827
rfemur -41.5585 -29.282 21.5554
rtibia 72.7344
rfoot -11.6697 11.5397
rtoes -13.488
lfemur -38.2574 13.2073 15.8282
ltibia 65.4253
lfoot -13.1312 -19.1366
ltoes -7.43031
135
root 4.06884 12.458 -14.8926 149.531 67.9499 25.6133
lowerback 24.2917 -0.419687 -5.58349
upperback 8.04235 -1.51375 -2.72798
thorax -4.54345 -0.570354 0.628494
lowerneck -20.4705 -10.183 -19.1066
upperneck 3.49025 -7.64247 -2.27829
head 4.82988 -3.88239 1.34297
rclavicle -5.80451e-014 4.77083e-014
rhumerus 22.5737 0.284558 -14.9255
rradius 90.6799
rwrist 54.6889
rhand -64.8627 -22.8641
rfingers 7.12502
rthumb -36.7678 -48.9883
lclavicle -5.80451e-014 4.77083e-014
lhumerus 59.7969 9.39526 29.7069
lradius 50.9693
lwrist -40.8246
lhand -67.7584 -126.433
lfingers 7.12502
lthumb -39.5017 -511.808
rfemur -43.9992 -29.4533 21.1521
rtibia 72.3539
rfoot -12.9349 9.46975
rtoes -12.9878
lfemur -37.9094 14.2538 15.9263
ltibia 66.5205
lfoot -12.4348 -20.8963
ltoes -7.60693
136
root 4.09853 12.3908 -14.628 153.705 67.7107 30.0943
lowerback 24.7347 -0.674906 -4.92674
upperback 8.22179 -1.66094 -2.50614
thorax -4.57701 -0.629637 0.539945
lowerneck -20.6358 -10.0834 -18.8327
upperneck 3.58264 -7.48223 -2.64692
head 4.8521 -3.82112 1.19897
rclavicle 1.91628e-013 9.54166e-014
rhumerus 22.3045 1.56193 -12.4253
rradius 91.5949
rwrist 55.1878
rhand -64.5528 -20.844
rfingers 7.12502
rthumb -36.4745 -47.0425
lclavicle 1.91628e-013 9.54166e-014
lhumerus 59.2518 9.83443 29.2476
lradius 51.3323
lwrist -40.2151
lhand -67.6222 -127.965
lfingers 7.12502
lthumb -39.3733 -513.377
rfemur -45.9585 -29.2077 20.7594
rtibia 71.4656
rfoot -14.0856 7.33815
rtoes -11.3616
lfemur -37.416 15.3034 16.5169
ltibia 67.6192
lfoot -11.856 -22.017
ltoes -7.69805
137
root 4.12899 12.309 -14.3588 157.374 67.38 34.0767
lowerback 25.0454 -0.953056 -4.37256
upperback 8.44658 -1.84252 -2.34943
thorax -4.49218 -0.70513 0.446833
lowerneck -20.8888 -9.89567 -18.5389
upperneck 3.6766 -7.17982 -3.09567
head 4.8767 -3.69542 1.04033
rclavicle -5.56597e-015 8.11041e-014
rhumerus 22.408 3.40952 -9.51658
rradius 92.1331
rwrist 54.448
rhand -65.2991 -20.897
rfingers 7.12502
rthumb -37.1806 -46.9146
lclavicle -5.56597e-015 8.11041e-014
lhumerus 59.0191 10.3647 29.1742
lradius 51.1363
lwrist -40.3631
lhand -67.3214 -130.031
lfingers 7.12502
lthumb -39.0899 -515.525
rfemur -47.7587 -28.9544 20.1567
rtibia 70.2526
rfoot -15.2685 5.38638
rtoes -11.6604
lfemur -36.832 16.5476 17.0806
ltibia 68.7316
lfoot -11.276 -23.3847
ltoes -7.81117
138
root 4.16696 12.2388 -14.087 161.042 66.3669 38.3325
lowerback 26.0733 -1.4252 -3.88211
upperback 8.58935 -2.28374 -2.03304
thorax -4.82938 -0.886946 0.651802
lowerneck -21.066 -9.79823 -18.4453
upperneck 3.71278 -6.93855 -3.62684
head 4.88132 -3.59414 0.878019
rclavicle 7.95139e-015 4.6118e-014
rhumerus 22.9454 4.11283 -6.83859
rradius 92.9972
rwrist 56.9165
rhand -63.5925 -19.7378
rfingers 7.12502
rthumb -35.5648 -46.1601
lclavicle 7.95139e-015 4.6118e-014
lhumerus 58.7966 10.9468 29.7626
lradius 50.7657
lwrist -40.5942
lhand -67.046 -131.602
lfingers 7.12502
lthumb -38.8302 -517.17
rfemur -49.0988 -29.2874 19.1281
rtibia 68.6939
rfoot -16.3463 3.67374
rtoes -12.5175
lfemur -36.7542 16.973 17.4499
ltibia 70.016
lfoot -10.611 -24.3878
ltoes -7.87371
139
root 4.19035 12.0916 -13.8476 163.617 67.6382 40.835
lowerback 24.7516 -1.09681 -3.52052
upperback 8.95324 -1.72701 -1.97729
thorax -3.8165 -0.653139 0.324627
lowerneck -20.8951 -9.5287 -18.4928
upperneck 3.52153 -6.63093 -3.58901
head 4.77843 -3.42713 0.944286
rclavicle -5.96354e-014 -6.20208e-014
rhumerus 23.7322 5.76307 -3.93749
rradius 93.5354
rwrist 56.507
rhand -63.269 -19.1235
rfingers 7.12502
rthumb -35.2581 -45.6189
lclavicle -5.96354e-014 -6.20208e-014
lhumerus 58.5442 11.5044 29.9858
lradius 50.3237
lwrist -40.6394
lhand -66.5984 -132.782
lfingers 7.12502
lthumb -38.408 -518.469
rfemur -50.4618 -26.7358 18.3164
rtibia 66.9038
rfoot -17.8771 1.81447
rtoes -11.2779
lfemur -34.5401 20.175 18.9
ltibia 71.134
lfoot -10.8586 -25.8224
ltoes -8.08027
140
root 4.22605 11.992 -13.5795 167.239 66.7459 44.6284
lowerback 24.7214 -1.56223 -2.85675
upperback 9.09794 -2.11104 -1.9845
thorax -3.6619 -0.813509 0.0390844
lowerneck -20.7248 -9.33786 -18.0104
upperneck 3.43652 -6.53854 -3.80788
head 4.70066 -3.38097 0.828372
rclavicle 1.25632e-013 9.22361e-014
rhumerus 24.291 7.32456 -1.49938
rradius 94.2745
rwrist 55.5818
rhand -62.5897 -17.2994
rfingers 7.12502
rthumb -34.6136 -43.9448
lclavicle 1.25632e-013 9.22361e-014
lhumerus 58.985 12.0272 30.838
lradius 49.3021
lwrist -41.7476
lhand -65.9472 -132.445
lfingers 7.12502
lthumb -37.7931 -518.3
rfemur -51.8318 -26.2851 16.9893
rtibia 64.8662
rfoot -19.114 -0.830757
rtoes -11.2346
lfemur -34.7646 21.2447 19.3357
ltibia 72.6325
lfoot -10.2895 -26.6831
ltoes -7.58355
141
root 4.24947 11.8892 -13.2999 170.778 66.1364 48.4593
lowerback 24.7594 -1.68738 -2.51116
upperback 9.2641 -2.14046 -1.72141
thorax -3.50208 -0.820263 0.132628
lowerneck -20.8458 -9.278 -18.0492
upperneck 3.76089 -6.39693 -3.73323
head 4.82157 -3.33361 0.862873
rclavicle 1.25632e-013 4.77083e-014
rhumerus 24.9221 9.10963 1.14708
rradius 94.7403
rwrist 53.6709
rhand -63.0905 -13.91
rfingers 7.12502
rthumb -35.0888 -40.4452
lclavicle 1.25632e-013 4.77083e-014
lhumerus 58.9497 12.4557 31.1475
lradius 48.9378
lwrist -41.8687
lhand -65.6558 -133.375
lfingers 7.12502
lthumb -37.5177 -519.303
rfemur -52.7973 -25.1574 15.4776
rtibia 62.6622
rfoot -20.5844 -3.61049
rtoes -10.3137
lfemur -34.6973 22.6067 20.2212
ltibia 74.235
lfoot -10.0825 -27.6457
ltoes -8.37493
142
root 4.2843 11.7819 -13.0148 173.457 65.4755 51.4951
lowerback 25.0346 -1.78977 -2.35414
upperback 9.30205 -2.20696 -1.61589
thorax -3.59554 -0.839925 0.179805
lowerneck -20.5237 -9.07882 -17.5582
upperneck 3.88971 -6.27599 -4.19614
head 4.78617 -3.29698 0.669902
rclavicle 4.6118e-014 1.59028e-014
rhumerus 25.6629 10.6996 3.33332
rradius 95.5185
rwrist 54.2003
rhand -61.0386 -17.4395
rfingers 7.12502
rthumb -33.14 -44.4101
lclavicle 4.6118e-014 1.59028e-014
lhumerus 58.7615 12.6377 30.9824
lradius 48.4705
lwrist -41.4031
lhand -65.5814 -135.555
lfingers 7.12502
lthumb -37.4474 -521.503
rfemur -53.5181 -24.1037 13.5595
rtibia 60.2406
rfoot -21.3903 -6.98146
rtoes -9.64267
lfemur -34.7189 23.797 20.68
ltibia 76.0274
lfoot -9.64588 -28.3032
ltoes -7.89055
143
root 4.33156 11.6689 -12.7569 176.492 62.4883 55.1092
lowerback 25.3087 -3.08075 -0.884342
upperback 9.52793 -3.37714 -1.5755
thorax -3.54832 -1.33331 -0.29311
lowerneck -20.5587 -9.02401 -17.1895
upperneck 4.15084 -6.21377 -4.57596
head 4.85534 -3.29468 0.498111
rclavicle -1.31993e-013 -2.22639e-014
rhumerus 26.8611 12.0474 5.28934
rradius 96.0382
rwrist 54.2215
rhand -59.4316 -18.9982
rfingers 7.12502
rthumb -31.6106 -46.2815
lclavicle -1.31993e-013 -2.22639e-014
lhumerus 58.8179 13.0713 30.9417
lradius 47.8797
lwrist -41.5405
lhand -65.5337 -136.899
lfingers 7.12502
lthumb -37.4023 -522.858
rfemur -52.9252 -24.8634 10.8676
rtibia 57.6749
rfoot -22.7259 -10.8052
rtoes -8.71407
lfemur -36.4571 22.8049 20.533
ltibia 77.9328
lfoot -8.99951 -28.5044
ltoes -7.32319
144
root 4.33934 11.5501 -12.364 177.956 63.8994 57.2348
lowerback 26.5547 -1.6111 -3.29707
upperback 9.45211 -2.11869 -1.0097
thorax -4.09284 -0.78327 1.37999
lowerneck -20.3542 -8.95715 -17.1444
upperneck 4.2877 -6.0956 -4.98977
head 4.86811 -3.25463 0.396533
rclavicle -7.63333e-014 -3.49861e-014
rhumerus 28.3877 13.8724 7.59753
rradius 96.6185
rwrist 51.9054
rhand -58.4963 -19.2805
rfingers 7.12502
rthumb -30.7192 -46.7351
lclavicle -7.63333e-014 -3.49861e-014
lhumerus 58.6574 13.2686 31.0663
lradius 47.5255
lwrist -41.6373
lhand -64.7744 -135.678
lfingers 7.12502
lthumb -36.6842 -521.823
rfemur -53.3715 -20.8103 8.53282
rtibia 55.0598
rfoot -23.2702 -14.292
rtoes -6.46884
lfemur -34.9004 25.568 21.6361
ltibia 79.7629
lfoot -8.94272 -29.3257
ltoes -7.43835
145
root 4.39467 11.4805 -12.1376 179.451 61.2669 59.5435
lowerback 27.7297 -2.74639 -1.77043
upperback 9.67406 -3.07283 -1.08398
thorax -4.45952 -1.16567 0.735148
lowerneck -20.5932 -9.02992 -16.705
upperneck 4.48444 -6.17312 -5.37468
head 4.95024 -3.31437 0.192499
rclavicle -1.17681e-013 2.54444e-014
rhumerus 28.3877 13.8724 7.59753
rradius 96.6185
rwrist 51.9054
rhand -58.4963 -19.2805
rfingers 7.12502
rthumb -30.7192 -46.7351
lclavicle -1.17681e-013 2.54444e-014
lhumerus 59.0013 13.6135 31.2738
lradius 46.7242
lwrist -41.858
lhand -63.8725 -133.172
lfingers 7.12502
lthumb -35.8301 -519.53
rfemur -52.3353 -20.7765 5.2276
rtibia 52.5396
rfoot -23.7852 -17.7172
rtoes -5.23768
lfemur -36.8524 24.5599 20.8602
ltibia 81.8324
lfoot -8.59954 -29.5216
ltoes -7.09685
